<svg width="380" height="97" viewBox="0 0 380 97" fill="none" xmlns="http://www.w3.org/2000/svg">
<path d="M25.0559 63.4559C23.6479 63.4559 21.8879 63.3279 19.7759 63.0719C17.7279 62.8799 15.5519 62.4959 13.2479 61.9199C10.9439 61.4079 8.79993 60.7039 6.81593 59.8079C4.83193 58.9119 3.19993 57.7919 1.91993 56.4479C0.639928 55.1039 -7.22706e-05 53.5039 -7.22706e-05 51.6479C-7.22706e-05 49.0239 0.767928 46.7839 2.30393 44.9279C3.83993 43.0719 5.79193 41.5679 8.15993 40.4159C10.5919 39.2639 13.0879 38.3999 15.6479 37.8239C18.2719 37.1839 20.6399 36.7999 22.7519 36.6719C24.2239 33.9199 25.8879 30.9119 27.7439 27.6479C29.5999 24.3199 31.5519 21.0879 33.5999 17.9519C35.7119 14.8159 37.7919 12.1599 39.8399 9.98394C40.7359 9.02394 41.7279 8.41594 42.8159 8.15994C43.9679 7.83994 45.1839 7.67994 46.4639 7.67994C46.9119 7.67994 47.3919 7.77594 47.9039 7.96794C48.4159 8.09594 48.7039 8.44794 48.7679 9.02394C48.6399 9.59994 48.2559 10.2079 47.6159 10.8479C47.0399 11.4879 46.5599 11.9999 46.1759 12.3839C43.2319 15.6479 40.1919 19.4239 37.0559 23.7119C33.9199 27.9999 31.0079 32.3199 28.3199 36.6719C32.6079 36.7359 37.0239 37.0559 41.5679 37.6319C46.1759 38.2079 50.6559 39.1679 55.0079 40.5119C59.3599 41.7919 63.3279 43.6479 66.9119 46.0799C67.7439 45.1839 68.4799 44.1599 69.1199 43.0079C69.7599 41.8559 70.0799 40.6399 70.0799 39.3599C70.0799 37.5039 69.4079 35.9039 68.0639 34.5599C66.7199 33.2159 64.9919 32.1279 62.8799 31.2959C60.7679 30.3999 58.4959 29.6959 56.0639 29.1839C53.6959 28.6719 51.4239 28.3199 49.2479 28.1279C47.1359 27.9359 45.4079 27.8399 44.0639 27.8399C43.6799 27.8399 43.0719 27.8719 42.2399 27.9359C41.4719 27.9359 40.7679 27.8399 40.1279 27.6479C39.4879 27.4559 39.1679 27.0399 39.1679 26.3999C39.1679 25.3759 39.6159 24.7039 40.5119 24.3839C41.4719 23.9999 42.3359 23.7439 43.1039 23.6159C46.1119 23.0399 49.1519 22.5599 52.2239 22.1759C55.2959 21.7279 58.3039 21.0559 61.2479 20.1599C64.1919 19.1999 66.9119 17.7279 69.4079 15.7439C69.9199 15.3599 70.4639 14.8799 71.0399 14.3039C71.6799 13.7279 71.9999 13.1199 71.9999 12.4799C71.9999 11.3919 71.1679 10.4959 69.5039 9.79193C67.9039 9.02394 65.8559 8.41594 63.3599 7.96794C60.8639 7.51994 58.2719 7.19994 55.5839 7.00794C52.9599 6.75194 50.5919 6.59194 48.4799 6.52794C46.3679 6.46394 44.8959 6.43194 44.0639 6.43194C38.6239 6.43194 33.5359 6.81594 28.7999 7.58393C24.1279 8.35194 19.1359 9.40794 13.8239 10.7519C13.2479 10.8799 12.3519 11.1679 11.1359 11.6159C9.91993 11.9999 8.73593 12.3519 7.58393 12.6719C6.49593 12.9919 5.75993 13.1519 5.37593 13.1519C4.92793 13.1519 4.54393 13.0559 4.22393 12.8639C3.90393 12.6079 3.74393 12.2559 3.74393 11.8079C3.74393 10.4639 4.47993 9.31194 5.95193 8.35194C7.48793 7.32794 9.47193 6.49594 11.9039 5.85593C14.3359 5.15194 16.9919 4.60794 19.8719 4.22394C22.7519 3.83994 25.5679 3.55194 28.3199 3.35994C31.1359 3.10394 33.6319 2.94394 35.8079 2.87994C37.9839 2.81594 39.5519 2.78394 40.5119 2.78394C41.6639 2.78394 43.3279 2.84794 45.5039 2.97594C47.7439 3.03994 50.2399 3.19994 52.9919 3.45594C55.8079 3.71194 58.6239 4.09594 61.4399 4.60794C64.3199 5.11994 66.9759 5.75994 69.4079 6.52794C71.8399 7.29594 73.7919 8.25594 75.2639 9.40794C76.7359 10.4959 77.4719 11.8079 77.4719 13.3439C77.4719 14.8159 76.8319 16.1599 75.5519 17.3759C74.3359 18.5919 72.7039 19.7119 70.6559 20.7359C68.6719 21.6959 66.5599 22.5279 64.3199 23.2319C62.0799 23.9359 59.9679 24.5119 57.9839 24.9599C55.9999 25.3439 54.3679 25.5999 53.0879 25.7279C55.2639 25.9199 57.6959 26.3679 60.3839 27.0719C63.0719 27.7119 65.6639 28.6399 68.1599 29.8559C70.6559 31.0079 72.7039 32.4159 74.3039 34.0799C75.9039 35.7439 76.7039 37.6319 76.7039 39.7439C76.7039 41.7279 76.0959 43.5519 74.8799 45.2159C73.7279 46.8799 72.4799 48.3519 71.1359 49.6319C71.6479 50.1439 72.2559 51.0079 72.9599 52.2239C73.7279 53.4399 74.1119 54.4319 74.1119 55.1999C74.1119 55.6479 74.0159 56.0319 73.8239 56.3519C73.6959 56.6719 73.5039 56.8319 73.2479 56.8319C72.9919 56.8319 72.7679 56.6719 72.5759 56.3519C71.9999 55.4559 71.3599 54.5599 70.6559 53.6639C69.9519 52.7679 69.3439 52.0639 68.8319 51.5519C64.9919 54.3679 60.5439 56.6399 55.4879 58.3679C50.4319 60.1599 45.2479 61.4399 39.9359 62.2079C34.6879 63.0399 29.7279 63.4559 25.0559 63.4559ZM25.0559 61.1519C29.5359 61.1519 34.1759 60.7359 38.9759 59.9039C43.8399 59.0719 48.5439 57.7279 53.0879 55.8719C57.6959 54.0159 61.7599 51.5519 65.2799 48.4799C60.9919 45.5999 55.9039 43.4879 50.0159 42.1439C44.1279 40.7359 38.0479 40.0319 31.7759 40.0319C31.0719 40.0319 30.3359 40.0319 29.5679 40.0319C28.8639 40.0319 28.1599 40.0639 27.4559 40.1279L26.2079 40.2239C25.1199 42.0799 24.0639 44.0639 23.0399 46.1759C22.0159 48.2879 21.1519 50.3359 20.4479 52.3199C19.8079 54.3039 19.4879 56.0639 19.4879 57.5999C19.4879 58.1119 19.3279 58.6879 19.0079 59.3279C18.7519 60.0319 18.3679 60.3839 17.8559 60.3839C20.2879 60.8959 22.6879 61.1519 25.0559 61.1519ZM16.1279 59.9039C15.6799 59.5839 15.3599 59.0079 15.1679 58.1759C15.0399 57.4079 14.9759 56.7679 14.9759 56.2559C14.9759 54.8479 15.2959 53.1839 15.9359 51.2639C16.6399 49.3439 17.4399 47.4559 18.3359 45.5999C19.2319 43.6799 19.9999 42.0799 20.6399 40.7999C18.5919 41.1199 16.4799 41.6959 14.3039 42.5279C12.1279 43.3599 10.3039 44.5759 8.83193 46.1759C7.35993 47.7119 6.62393 49.7919 6.62393 52.4159C6.62393 53.8879 7.16793 55.1359 8.25593 56.1599C9.40793 57.1199 10.7199 57.8879 12.1919 58.4639C13.7279 59.1039 15.0399 59.5839 16.1279 59.9039ZM101.978 59.3279C99.9942 59.3279 98.4582 58.6879 97.3702 57.4079C96.2822 56.1279 95.7382 54.4959 95.7382 52.5119C95.7382 51.6159 95.8662 50.6559 96.1222 49.6319C96.3782 48.5439 96.7942 47.4559 97.3702 46.3679C96.7302 47.0719 95.9302 47.9999 94.9702 49.1519C94.0102 50.3039 92.9542 51.4559 91.8022 52.6079C90.7142 53.7599 89.5622 54.7199 88.3462 55.4879C87.1942 56.2559 86.1062 56.6399 85.0822 56.6399C83.2902 56.6399 82.0742 56.0319 81.4342 54.8159C80.8582 53.5999 80.5702 52.2239 80.5702 50.6879C80.5702 49.6639 80.7942 48.4159 81.2422 46.9439C81.7542 45.4719 82.4262 44.0319 83.2582 42.6239C84.0902 41.2159 85.0502 40.0639 86.1382 39.1679C87.2262 38.2079 88.3782 37.7279 89.5942 37.7279C90.0422 37.7279 90.5542 37.8239 91.1302 38.0159C91.7702 38.2079 92.0902 38.5599 92.0902 39.0719C92.0902 39.3279 91.7702 39.9039 91.1302 40.7999C90.5542 41.6319 89.8502 42.5919 89.0182 43.6799C88.2502 44.7679 87.5462 45.8879 86.9062 47.0399C86.3302 48.1279 86.0422 49.1199 86.0422 50.0159C86.0422 50.5919 86.1062 51.1679 86.2342 51.7439C86.4262 52.2559 86.8742 52.5119 87.5782 52.5119C88.8582 52.5119 90.1382 51.9039 91.4182 50.6879C92.7622 49.4079 94.1062 47.8399 95.4502 45.9839C96.7942 44.1279 98.0742 42.3039 99.2902 40.5119C100.57 38.6559 101.722 37.1199 102.746 35.9039C103.834 34.6239 104.762 33.9839 105.53 33.9839C106.426 33.9839 107.226 34.3039 107.93 34.9439C108.698 35.5199 109.082 36.2559 109.082 37.1519C108.25 38.4319 107.162 40.0959 105.818 42.1439C104.474 44.1279 103.258 46.1439 102.17 48.1919C101.146 50.2399 100.634 51.9999 100.634 53.4719C100.634 54.8159 100.922 55.7439 101.498 56.2559C102.138 56.7679 102.874 57.0239 103.706 57.0239C104.538 57.0239 105.498 56.7999 106.586 56.3519C107.674 55.9039 108.634 55.4559 109.466 55.0079C111.834 53.5999 114.042 51.8399 116.09 49.7279C118.138 47.6159 119.898 45.8239 121.37 44.3519C121.562 44.1599 121.754 44.0639 121.946 44.0639C122.266 44.0639 122.426 44.3199 122.426 44.8319C122.426 45.2799 122.234 45.7599 121.85 46.2719C120.57 47.7439 118.842 49.4719 116.666 51.4559C114.554 53.3759 112.378 55.0719 110.138 56.5439C108.922 57.3119 107.61 57.9519 106.202 58.4639C104.794 59.0399 103.386 59.3279 101.978 59.3279ZM118.057 57.9839C117.609 57.9839 116.937 57.8879 116.041 57.6959C115.209 57.5039 114.793 57.0879 114.793 56.4479C114.793 55.6159 115.113 54.4319 115.753 52.8959C116.457 51.3599 117.193 49.8239 117.961 48.2879C118.793 46.7519 119.433 45.5679 119.881 44.7359C120.969 42.7519 122.377 40.3199 124.105 37.4399C125.833 34.4959 127.817 31.3599 130.057 28.0319C132.361 24.6399 134.793 21.3119 137.353 18.0479C139.913 14.7199 142.537 11.7119 145.225 9.02394C147.977 6.27194 150.665 4.09594 153.289 2.49594C155.977 0.831936 158.505 -6.48499e-05 160.873 -6.48499e-05C162.345 -6.48499e-05 163.689 0.319935 164.905 0.959934C166.185 1.53593 166.825 2.71993 166.825 4.51193C166.825 6.43194 166.121 8.47994 164.713 10.6559C163.305 12.8319 161.449 15.0399 159.145 17.2799C156.841 19.5199 154.281 21.6959 151.465 23.8079C148.713 25.9199 145.929 27.9359 143.113 29.8559C140.297 31.7119 137.673 33.4079 135.241 34.9439C132.809 36.4159 130.825 37.6319 129.289 38.5919C128.777 39.4239 128.137 40.6079 127.369 42.1439C126.601 43.6159 125.993 44.7999 125.545 45.6959C126.633 44.8639 128.137 43.6479 130.057 42.0479C131.977 40.3839 134.089 38.6879 136.393 36.9599C138.761 35.2319 141.065 33.7599 143.305 32.5439C145.545 31.3279 147.497 30.7199 149.161 30.7199C150.505 30.7199 151.465 31.1039 152.041 31.8719C152.617 32.6399 152.905 33.6639 152.905 34.9439C152.905 36.4799 152.297 37.8879 151.081 39.1679C149.929 40.3839 148.425 41.4719 146.569 42.4319C144.713 43.3919 142.793 44.1279 140.809 44.6399C138.889 45.1519 137.161 45.4079 135.625 45.4079C135.369 45.4079 135.113 45.4079 134.857 45.4079C134.601 45.4079 134.345 45.3759 134.089 45.3119C134.857 47.5519 136.201 49.5679 138.121 51.3599C140.041 53.1519 142.217 54.0479 144.649 54.0479C147.465 54.0479 149.897 53.5679 151.945 52.6079C154.057 51.5839 155.881 50.3679 157.417 48.9599C159.017 47.5519 160.425 46.2399 161.641 45.0239C161.961 44.7039 162.217 44.5439 162.409 44.5439C162.729 44.5439 162.889 44.7999 162.889 45.3119C162.889 45.8879 162.665 46.3999 162.217 46.8479C161.129 47.9359 160.393 48.7039 160.009 49.1519C159.625 49.5999 159.273 49.9839 158.953 50.3039C158.633 50.5599 157.961 51.0719 156.937 51.8399C155.529 52.8639 154.281 53.7599 153.193 54.5279C152.169 55.2319 150.921 55.8719 149.449 56.4479C148.361 56.8959 147.177 57.2799 145.897 57.5999C144.617 57.8559 143.337 57.9839 142.057 57.9839C140.905 57.9839 139.753 57.8559 138.601 57.5999C137.513 57.2799 136.457 56.7359 135.433 55.9679C133.897 54.8799 132.585 53.4399 131.497 51.6479C130.409 49.8559 129.705 48.0959 129.385 46.3679C128.617 46.7519 127.625 47.4559 126.409 48.4799C125.257 49.5039 124.169 50.7839 123.145 52.3199C122.185 53.7919 121.609 55.4559 121.417 57.3119C120.905 57.5039 120.361 57.6639 119.785 57.7919C119.209 57.9199 118.633 57.9839 118.057 57.9839ZM130.441 35.3279C131.913 34.3039 133.897 32.9919 136.393 31.3919C138.889 29.7279 141.545 27.9039 144.361 25.9199C147.241 23.8719 149.993 21.7599 152.617 19.5839C155.241 17.3439 157.481 15.1359 159.337 12.9599C161.257 10.7199 162.441 8.63994 162.889 6.71993C162.889 6.59194 162.889 6.46394 162.889 6.33594C162.953 6.20794 162.985 6.11194 162.985 6.04794C162.985 5.08794 162.473 4.51194 161.449 4.31994C161.257 4.25594 161.065 4.22394 160.873 4.22394C160.681 4.22394 160.489 4.22394 160.297 4.22394C158.313 4.22394 156.137 5.08794 153.769 6.81594C151.465 8.54394 149.097 10.7519 146.665 13.4399C144.233 16.0639 141.929 18.8479 139.753 21.7919C137.577 24.6719 135.657 27.3279 133.993 29.7599C132.393 32.1919 131.209 34.0479 130.441 35.3279ZM134.857 43.5839C135.689 43.5839 136.777 43.4239 138.121 43.1039C139.465 42.7839 140.809 42.3039 142.153 41.6639C143.497 41.0239 144.617 40.2559 145.513 39.3599C146.473 38.4639 146.953 37.4079 146.953 36.1919C146.953 35.4239 146.505 35.0399 145.609 35.0399C145.097 35.0399 144.297 35.3599 143.209 35.9999C142.121 36.6399 140.937 37.4079 139.657 38.3039C138.441 39.1999 137.321 40.0639 136.297 40.8959C135.273 41.7279 134.505 42.3679 133.993 42.8159C133.929 42.8799 133.897 42.9759 133.897 43.1039C133.897 43.2959 134.025 43.4239 134.281 43.4879C134.537 43.5519 134.729 43.5839 134.857 43.5839ZM173.238 32.3519C172.278 32.3519 171.446 32.0319 170.742 31.3919C170.102 30.6879 169.782 29.8559 169.782 28.8959C169.782 27.9359 170.102 27.1039 170.742 26.3999C171.446 25.6959 172.278 25.3439 173.238 25.3439C174.198 25.3439 175.03 25.6959 175.734 26.3999C176.438 27.1039 176.79 27.9359 176.79 28.8959C176.79 29.8559 176.438 30.6879 175.734 31.3919C175.03 32.0319 174.198 32.3519 173.238 32.3519ZM166.23 59.5199C163.99 59.5199 162.102 58.9439 160.566 57.7919C159.094 56.5759 158.518 54.5919 158.838 51.8399C158.966 50.9439 159.286 49.6959 159.798 48.0959C160.31 46.4319 160.95 44.7679 161.718 43.1039C162.55 41.3759 163.446 39.9039 164.406 38.6879C165.366 37.4719 166.326 36.8639 167.286 36.8639C168.054 36.8639 168.79 37.1199 169.494 37.6319C170.198 38.0799 170.55 38.7199 170.55 39.5519C170.55 39.9999 170.23 40.6399 169.59 41.4719C168.95 42.2399 168.182 43.2319 167.286 44.4479C166.454 45.5999 165.718 46.9119 165.078 48.3839C164.438 49.7919 164.118 51.3279 164.118 52.9919C164.118 54.5279 164.438 55.5839 165.078 56.1599C165.782 56.6719 166.614 56.9279 167.574 56.9279C168.79 56.9279 170.102 56.6079 171.51 55.9679C172.918 55.2639 174.326 54.3999 175.734 53.3759C176.566 52.7999 177.782 51.7439 179.382 50.2079C181.046 48.6719 182.966 46.7199 185.142 44.3519C185.27 44.2239 185.398 44.1599 185.526 44.1599C186.038 44.1599 186.294 44.5119 186.294 45.2159C186.294 45.4079 185.91 45.9519 185.142 46.8479C184.374 47.6799 183.446 48.6399 182.358 49.7279C181.334 50.8159 180.342 51.8399 179.382 52.7999C178.422 53.6959 177.718 54.3039 177.27 54.6239C175.67 55.8399 173.942 56.9599 172.086 57.9839C170.294 59.0079 168.342 59.5199 166.23 59.5199ZM190.159 58.4639C187.599 58.4639 185.711 57.7919 184.495 56.4479C183.279 55.1039 182.671 53.2159 182.671 50.7839C182.671 48.5439 183.183 46.0799 184.207 43.3919C185.231 40.6399 186.351 38.3679 187.567 36.5759C186.991 36.6399 186.383 36.7359 185.743 36.8639C185.167 36.9279 184.559 36.9599 183.919 36.9599C182.895 36.9599 181.967 36.7999 181.135 36.4799C180.367 36.0959 179.983 35.3919 179.983 34.3679C179.983 33.8559 180.207 33.5039 180.655 33.3119C181.103 33.1199 181.551 33.0559 181.999 33.1199L189.199 33.5039C189.967 32.1599 190.895 30.5919 191.983 28.7999C193.135 26.9439 194.383 25.1519 195.727 23.4239C197.135 21.6959 198.639 20.2879 200.239 19.1999C201.839 18.0479 203.503 17.4719 205.231 17.4719C205.615 17.4719 206.127 17.5359 206.767 17.6639C207.471 17.7279 207.919 18.0479 208.111 18.6239C208.175 18.7519 208.207 18.9119 208.207 19.1039C208.207 19.4879 208.047 19.8399 207.727 20.1599C207.407 20.4159 207.087 20.7039 206.767 21.0239C204.655 23.0719 202.671 25.0879 200.815 27.0719C199.023 29.0559 197.263 31.2639 195.535 33.6959C196.815 33.7599 198.063 33.7919 199.279 33.7919C200.559 33.7279 201.807 33.6959 203.023 33.6959C203.663 33.6959 204.271 33.7599 204.847 33.8879C205.487 34.0159 205.839 34.3359 205.903 34.8479C205.903 35.2319 205.391 35.5199 204.367 35.7119C203.343 35.9039 202.127 36.0639 200.719 36.1919C199.311 36.2559 197.967 36.3199 196.687 36.3839C195.407 36.3839 194.543 36.3839 194.095 36.3839C193.327 37.5359 192.463 39.0079 191.503 40.7999C190.607 42.5919 189.807 44.4159 189.103 46.2719C188.463 48.1279 188.143 49.7599 188.143 51.1679C188.143 54.3039 189.487 55.8719 192.175 55.8719C194.031 55.8719 195.855 55.4559 197.647 54.6239C199.439 53.7919 201.135 52.7679 202.735 51.5519C204.399 50.3359 205.839 49.1519 207.055 47.9999C208.271 46.8479 209.167 45.9839 209.743 45.4079C209.999 45.1519 210.223 45.0239 210.415 45.0239C210.671 45.0239 210.799 45.2159 210.799 45.5999C210.799 46.2399 210.607 46.7519 210.223 47.1359C208.367 48.9919 206.351 50.8159 204.175 52.6079C201.999 54.3359 199.727 55.7439 197.359 56.8319C195.055 57.9199 192.655 58.4639 190.159 58.4639ZM215.471 58.4639C212.911 58.4639 211.023 57.7919 209.807 56.4479C208.591 55.1039 207.983 53.2159 207.983 50.7839C207.983 48.5439 208.495 46.0799 209.519 43.3919C210.543 40.6399 211.663 38.3679 212.879 36.5759C212.303 36.6399 211.695 36.7359 211.055 36.8639C210.479 36.9279 209.871 36.9599 209.231 36.9599C208.207 36.9599 207.279 36.7999 206.447 36.4799C205.679 36.0959 205.295 35.3919 205.295 34.3679C205.295 33.8559 205.519 33.5039 205.967 33.3119C206.415 33.1199 206.863 33.0559 207.311 33.1199L214.511 33.5039C215.279 32.1599 216.207 30.5919 217.295 28.7999C218.447 26.9439 219.695 25.1519 221.039 23.4239C222.447 21.6959 223.951 20.2879 225.551 19.1999C227.151 18.0479 228.815 17.4719 230.543 17.4719C230.927 17.4719 231.439 17.5359 232.079 17.6639C232.783 17.7279 233.231 18.0479 233.423 18.6239C233.487 18.7519 233.519 18.9119 233.519 19.1039C233.519 19.4879 233.359 19.8399 233.039 20.1599C232.719 20.4159 232.399 20.7039 232.079 21.0239C229.967 23.0719 227.983 25.0879 226.127 27.0719C224.335 29.0559 222.575 31.2639 220.847 33.6959C222.127 33.7599 223.375 33.7919 224.591 33.7919C225.871 33.7279 227.119 33.6959 228.335 33.6959C228.975 33.6959 229.583 33.7599 230.159 33.8879C230.799 34.0159 231.151 34.3359 231.215 34.8479C231.215 35.2319 230.703 35.5199 229.679 35.7119C228.655 35.9039 227.439 36.0639 226.031 36.1919C224.623 36.2559 223.279 36.3199 221.999 36.3839C220.719 36.3839 219.855 36.3839 219.407 36.3839C218.639 37.5359 217.775 39.0079 216.815 40.7999C215.919 42.5919 215.119 44.4159 214.415 46.2719C213.775 48.1279 213.455 49.7599 213.455 51.1679C213.455 54.3039 214.799 55.8719 217.487 55.8719C219.343 55.8719 221.167 55.4559 222.959 54.6239C224.751 53.7919 226.447 52.7679 228.047 51.5519C229.711 50.3359 231.151 49.1519 232.367 47.9999C233.583 46.8479 234.479 45.9839 235.055 45.4079C235.311 45.1519 235.535 45.0239 235.727 45.0239C235.983 45.0239 236.111 45.2159 236.111 45.5999C236.111 46.2399 235.919 46.7519 235.535 47.1359C233.679 48.9919 231.663 50.8159 229.487 52.6079C227.311 54.3359 225.039 55.7439 222.671 56.8319C220.367 57.9199 217.967 58.4639 215.471 58.4639ZM246.832 32.3519C245.872 32.3519 245.04 32.0319 244.336 31.3919C243.696 30.6879 243.376 29.8559 243.376 28.8959C243.376 27.9359 243.696 27.1039 244.336 26.3999C245.04 25.6959 245.872 25.3439 246.832 25.3439C247.792 25.3439 248.624 25.6959 249.328 26.3999C250.032 27.1039 250.384 27.9359 250.384 28.8959C250.384 29.8559 250.032 30.6879 249.328 31.3919C248.624 32.0319 247.792 32.3519 246.832 32.3519ZM239.824 59.5199C237.584 59.5199 235.696 58.9439 234.16 57.7919C232.688 56.5759 232.112 54.5919 232.432 51.8399C232.56 50.9439 232.88 49.6959 233.392 48.0959C233.904 46.4319 234.544 44.7679 235.312 43.1039C236.144 41.3759 237.04 39.9039 238 38.6879C238.96 37.4719 239.92 36.8639 240.88 36.8639C241.648 36.8639 242.384 37.1199 243.088 37.6319C243.792 38.0799 244.144 38.7199 244.144 39.5519C244.144 39.9999 243.824 40.6399 243.184 41.4719C242.544 42.2399 241.776 43.2319 240.88 44.4479C240.048 45.5999 239.312 46.9119 238.672 48.3839C238.032 49.7919 237.712 51.3279 237.712 52.9919C237.712 54.5279 238.032 55.5839 238.672 56.1599C239.376 56.6719 240.208 56.9279 241.168 56.9279C242.384 56.9279 243.696 56.6079 245.104 55.9679C246.512 55.2639 247.92 54.3999 249.328 53.3759C250.16 52.7999 251.376 51.7439 252.976 50.2079C254.64 48.6719 256.56 46.7199 258.736 44.3519C258.864 44.2239 258.992 44.1599 259.12 44.1599C259.632 44.1599 259.888 44.5119 259.888 45.2159C259.888 45.4079 259.504 45.9519 258.736 46.8479C257.968 47.6799 257.04 48.6399 255.952 49.7279C254.928 50.8159 253.936 51.8399 252.976 52.7999C252.016 53.6959 251.312 54.3039 250.864 54.6239C249.264 55.8399 247.536 56.9599 245.68 57.9839C243.888 59.0079 241.936 59.5199 239.824 59.5199ZM275.272 58.5599C270.28 58.5599 267.784 56.0639 267.784 51.0719C267.784 49.5359 268.136 47.7439 268.84 45.6959C269.608 43.5839 270.408 41.7919 271.24 40.3199C267.656 43.0719 264.776 45.6959 262.6 48.1919C260.424 50.6239 258.856 52.4159 257.896 53.5679C257.64 53.8239 257.32 54.3679 256.936 55.1999C256.552 55.9679 256.104 56.7039 255.592 57.4079C255.08 58.0479 254.504 58.3679 253.864 58.3679C253.224 58.3679 252.776 58.1119 252.52 57.5999C252.264 57.0879 252.136 56.5759 252.136 56.0639C252.136 55.7439 252.232 55.3919 252.424 55.0079C253.256 53.5359 254.216 51.2959 255.304 48.2879C256.456 45.2159 257.384 42.1119 258.088 38.9759C258.216 38.4639 258.312 38.0479 258.376 37.7279C258.504 37.4079 258.664 37.0559 258.856 36.6719C259.176 35.9679 259.848 35.3919 260.872 34.9439C261.96 34.4959 262.824 34.2719 263.464 34.2719C263.784 34.2719 264.104 34.3679 264.424 34.5599C264.808 34.6879 265 34.9759 265 35.4239C265 35.7439 264.808 36.4479 264.424 37.5359C264.04 38.6239 263.56 39.8399 262.984 41.1839C262.472 42.5279 261.96 43.8079 261.448 45.0239C261 46.1759 260.68 46.9759 260.488 47.4239C261 46.9759 261.8 46.2399 262.888 45.2159C263.976 44.1279 265.192 42.9759 266.536 41.7599C267.944 40.4799 269.352 39.2639 270.76 38.1119C272.168 36.9599 273.416 35.9999 274.504 35.2319C275.592 34.4639 276.392 34.0799 276.904 34.0799C277.8 34.0799 278.568 34.3039 279.208 34.7519C279.912 35.1359 280.264 35.8399 280.264 36.8639C280.264 37.3119 279.912 38.0479 279.208 39.0719C278.504 40.0959 277.672 41.3119 276.712 42.7199C275.752 44.1279 274.92 45.6319 274.216 47.2319C273.512 48.8319 273.16 50.4319 273.16 52.0319C273.16 53.1839 273.448 54.1759 274.024 55.0079C274.664 55.7759 275.528 56.1599 276.616 56.1599C278.344 56.1599 280.008 55.7759 281.608 55.0079C283.208 54.1759 284.68 53.1839 286.024 52.0319C287.368 50.8799 288.552 49.7599 289.576 48.6719C290.6 47.5199 291.4 46.6239 291.976 45.9839C292.04 45.9199 292.104 45.8879 292.168 45.8879C292.296 45.8879 292.456 45.9839 292.648 46.1759C292.84 46.3039 292.936 46.5279 292.936 46.8479C292.936 47.1679 292.808 47.4559 292.552 47.7119C291.08 49.4399 289.448 51.1359 287.656 52.7999C285.928 54.4639 284.04 55.8399 281.992 56.9279C279.944 58.0159 277.704 58.5599 275.272 58.5599ZM270.694 96.9599C268.582 96.9599 266.438 96.6079 264.262 95.9039C262.086 95.1999 260.262 94.0479 258.79 92.4479C257.318 90.9119 256.582 88.9279 256.582 86.4959C256.582 83.7439 257.446 81.1199 259.174 78.6239C260.902 76.1279 263.206 73.8239 266.086 71.7119C268.902 69.5999 272.07 67.6799 275.59 65.9519C279.046 64.2239 282.566 62.6879 286.15 61.3439C289.734 60.0639 293.126 59.0079 296.326 58.1759C299.526 57.3439 302.246 56.7679 304.486 56.4479L306.31 48.9599C304.902 50.8159 303.238 52.6079 301.318 54.3359C299.398 56.0639 297.158 56.9279 294.598 56.9279C293.382 56.9279 292.39 56.4479 291.622 55.4879C290.918 54.5279 290.566 53.3759 290.566 52.0319C290.566 49.7919 291.206 47.5199 292.486 45.2159C293.83 42.9119 295.526 40.7999 297.574 38.8799C299.686 36.8959 301.926 35.2959 304.294 34.0799C306.726 32.8639 309.062 32.2559 311.302 32.2559C311.878 32.2559 312.71 32.4159 313.798 32.7359C314.95 32.9919 315.974 33.3759 316.87 33.8879C317.83 34.3999 318.31 35.0399 318.31 35.8079C318.118 36.3199 317.766 36.7039 317.254 36.9599C316.806 37.1519 316.326 37.3119 315.814 37.4399C314.982 40.5759 314.118 43.7119 313.222 46.8479C312.326 49.9839 311.43 53.1519 310.534 56.3519C311.174 56.3519 312.006 56.4159 313.03 56.5439C314.118 56.6079 315.078 56.8319 315.91 57.2159C316.742 57.5999 317.158 58.2399 317.158 59.1359C317.158 59.4559 317.062 59.6159 316.87 59.6159C316.806 59.6159 316.71 59.5839 316.582 59.5199C316.454 59.5199 316.294 59.5199 316.102 59.5199C314.822 58.8799 313.446 58.5599 311.974 58.5599C311.654 58.5599 311.334 58.5599 311.014 58.5599C310.694 58.5599 310.374 58.5919 310.054 58.6559C308.71 62.9439 306.854 67.3279 304.486 71.8079C302.118 76.3519 299.27 80.5119 295.942 84.2879C292.614 88.0639 288.87 91.1039 284.71 93.4079C280.486 95.7759 275.814 96.9599 270.694 96.9599ZM299.014 53.5679C300.486 52.7359 301.958 51.4239 303.43 49.6319C304.966 47.8399 306.406 45.7919 307.75 43.4879C309.158 41.1839 310.342 38.8799 311.302 36.5759C309.766 36.5759 308.038 37.1519 306.118 38.3039C304.198 39.3919 302.374 40.7999 300.646 42.5279C298.918 44.1919 297.478 45.9519 296.326 47.8079C295.238 49.5999 294.694 51.2319 294.694 52.7039C294.694 53.9199 295.174 54.5279 296.134 54.5279C296.838 54.5279 297.798 54.2079 299.014 53.5679ZM271.75 94.9439C275.27 94.9439 278.534 94.1759 281.542 92.6399C284.55 91.1039 287.27 89.0559 289.702 86.4959C292.198 83.9359 294.406 81.0879 296.326 77.9519C298.246 74.8159 299.878 71.5839 301.222 68.2559C302.566 64.9279 303.59 61.7599 304.294 58.7519C302.374 59.0079 299.974 59.5199 297.094 60.2879C294.278 61.1199 291.27 62.1439 288.07 63.3599C284.87 64.6399 281.702 66.0799 278.566 67.6799C275.43 69.2799 272.582 71.0399 270.022 72.9599C267.462 74.9439 265.414 77.0239 263.878 79.1999C262.342 81.3759 261.574 83.6479 261.574 86.0159V87.5519C261.574 89.0879 262.118 90.3999 263.206 91.4879C264.23 92.6399 265.542 93.5039 267.142 94.0799C268.678 94.6559 270.214 94.9439 271.75 94.9439ZM301.069 96.9599C298.957 96.9599 296.813 96.6079 294.637 95.9039C292.461 95.1999 290.637 94.0479 289.165 92.4479C287.693 90.9119 286.957 88.9279 286.957 86.4959C286.957 83.7439 287.821 81.1199 289.549 78.6239C291.277 76.1279 293.581 73.8239 296.461 71.7119C299.277 69.5999 302.445 67.6799 305.965 65.9519C309.421 64.2239 312.941 62.6879 316.525 61.3439C320.109 60.0639 323.501 59.0079 326.701 58.1759C329.901 57.3439 332.621 56.7679 334.861 56.4479L336.685 48.9599C335.277 50.8159 333.613 52.6079 331.693 54.3359C329.773 56.0639 327.533 56.9279 324.973 56.9279C323.757 56.9279 322.765 56.4479 321.997 55.4879C321.293 54.5279 320.941 53.3759 320.941 52.0319C320.941 49.7919 321.581 47.5199 322.861 45.2159C324.205 42.9119 325.901 40.7999 327.949 38.8799C330.061 36.8959 332.301 35.2959 334.669 34.0799C337.101 32.8639 339.437 32.2559 341.677 32.2559C342.253 32.2559 343.085 32.4159 344.173 32.7359C345.325 32.9919 346.349 33.3759 347.245 33.8879C348.205 34.3999 348.685 35.0399 348.685 35.8079C348.493 36.3199 348.141 36.7039 347.629 36.9599C347.181 37.1519 346.701 37.3119 346.189 37.4399C345.357 40.5759 344.493 43.7119 343.597 46.8479C342.701 49.9839 341.805 53.1519 340.909 56.3519C341.549 56.3519 342.381 56.4159 343.405 56.5439C344.493 56.6079 345.453 56.8319 346.285 57.2159C347.117 57.5999 347.533 58.2399 347.533 59.1359C347.533 59.4559 347.437 59.6159 347.245 59.6159C347.181 59.6159 347.085 59.5839 346.957 59.5199C346.829 59.5199 346.669 59.5199 346.477 59.5199C345.197 58.8799 343.821 58.5599 342.349 58.5599C342.029 58.5599 341.709 58.5599 341.389 58.5599C341.069 58.5599 340.749 58.5919 340.429 58.6559C339.085 62.9439 337.229 67.3279 334.861 71.8079C332.493 76.3519 329.645 80.5119 326.317 84.2879C322.989 88.0639 319.245 91.1039 315.085 93.4079C310.861 95.7759 306.189 96.9599 301.069 96.9599ZM329.389 53.5679C330.861 52.7359 332.333 51.4239 333.805 49.6319C335.341 47.8399 336.781 45.7919 338.125 43.4879C339.533 41.1839 340.717 38.8799 341.677 36.5759C340.141 36.5759 338.413 37.1519 336.493 38.3039C334.573 39.3919 332.749 40.7999 331.021 42.5279C329.293 44.1919 327.853 45.9519 326.701 47.8079C325.613 49.5999 325.069 51.2319 325.069 52.7039C325.069 53.9199 325.549 54.5279 326.509 54.5279C327.213 54.5279 328.173 54.2079 329.389 53.5679ZM302.125 94.9439C305.645 94.9439 308.909 94.1759 311.917 92.6399C314.925 91.1039 317.645 89.0559 320.077 86.4959C322.573 83.9359 324.781 81.0879 326.701 77.9519C328.621 74.8159 330.253 71.5839 331.597 68.2559C332.941 64.9279 333.965 61.7599 334.669 58.7519C332.749 59.0079 330.349 59.5199 327.469 60.2879C324.653 61.1199 321.645 62.1439 318.445 63.3599C315.245 64.6399 312.077 66.0799 308.941 67.6799C305.805 69.2799 302.957 71.0399 300.397 72.9599C297.837 74.9439 295.789 77.0239 294.253 79.1999C292.717 81.3759 291.949 83.6479 291.949 86.0159V87.5519C291.949 89.0879 292.493 90.3999 293.581 91.4879C294.605 92.6399 295.917 93.5039 297.517 94.0799C299.053 94.6559 300.589 94.9439 302.125 94.9439ZM366.457 32.3519C365.497 32.3519 364.665 32.0319 363.961 31.3919C363.321 30.6879 363.001 29.8559 363.001 28.8959C363.001 27.9359 363.321 27.1039 363.961 26.3999C364.665 25.6959 365.497 25.3439 366.457 25.3439C367.417 25.3439 368.249 25.6959 368.953 26.3999C369.657 27.1039 370.009 27.9359 370.009 28.8959C370.009 29.8559 369.657 30.6879 368.953 31.3919C368.249 32.0319 367.417 32.3519 366.457 32.3519ZM359.449 59.5199C357.209 59.5199 355.321 58.9439 353.785 57.7919C352.313 56.5759 351.737 54.5919 352.057 51.8399C352.185 50.9439 352.505 49.6959 353.017 48.0959C353.529 46.4319 354.169 44.7679 354.937 43.1039C355.769 41.3759 356.665 39.9039 357.625 38.6879C358.585 37.4719 359.545 36.8639 360.505 36.8639C361.273 36.8639 362.009 37.1199 362.713 37.6319C363.417 38.0799 363.769 38.7199 363.769 39.5519C363.769 39.9999 363.449 40.6399 362.809 41.4719C362.169 42.2399 361.401 43.2319 360.505 44.4479C359.673 45.5999 358.937 46.9119 358.297 48.3839C357.657 49.7919 357.337 51.3279 357.337 52.9919C357.337 54.5279 357.657 55.5839 358.297 56.1599C359.001 56.6719 359.833 56.9279 360.793 56.9279C362.009 56.9279 363.321 56.6079 364.729 55.9679C366.137 55.2639 367.545 54.3999 368.953 53.3759C369.785 52.7999 371.001 51.7439 372.601 50.2079C374.265 48.6719 376.185 46.7199 378.361 44.3519C378.489 44.2239 378.617 44.1599 378.745 44.1599C379.257 44.1599 379.513 44.5119 379.513 45.2159C379.513 45.4079 379.129 45.9519 378.361 46.8479C377.593 47.6799 376.665 48.6399 375.577 49.7279C374.553 50.8159 373.561 51.8399 372.601 52.7999C371.641 53.6959 370.937 54.3039 370.489 54.6239C368.889 55.8399 367.161 56.9599 365.305 57.9839C363.513 59.0079 361.561 59.5199 359.449 59.5199Z" fill="white"/>
<path d="M0.575928 67.4879H294.628V72.2879H0.575928V67.4879ZM311.423 67.4879H325.003V72.2879H311.423V67.4879ZM341.798 67.4879H370.489V72.2879H341.798V67.4879Z" fill="white"/>
</svg>
