<svg width="40" height="40" viewBox="0 0 40 40" fill="none" xmlns="http://www.w3.org/2000/svg">
<g clip-path="url(#clip0_809_70)">
<g clip-path="url(#clip1_809_70)">
<path d="M21.25 26.172V28.75H27.5V31.25H12.5V28.75H18.75V26.172C16.3334 25.8673 14.1111 24.6912 12.5001 22.8644C10.8891 21.0376 10.0001 18.6857 10 16.25V8.75H30V16.25C29.9999 18.6857 29.1109 21.0376 27.4999 22.8644C25.8889 24.6912 23.6666 25.8673 21.25 26.172ZM6.25 11.25H8.75V16.25H6.25V11.25ZM31.25 11.25H33.75V16.25H31.25V11.25Z" fill="#6E1F1F"/>
<path d="M21.25 26.172V28.75H27.5V31.25H12.5V28.75H18.75V26.172C16.3334 25.8673 14.1111 24.6912 12.5001 22.8644C10.8891 21.0376 10.0001 18.6857 10 16.25V8.75H30V16.25C29.9999 18.6857 29.1109 21.0376 27.4999 22.8644C25.8889 24.6912 23.6666 25.8673 21.25 26.172ZM6.25 11.25H8.75V16.25H6.25V11.25ZM31.25 11.25H33.75V16.25H31.25V11.25Z" fill="url(#paint0_linear_809_70)" fill-opacity="0.24"/>
</g>
</g>
<defs>
<linearGradient id="paint0_linear_809_70" x1="20" y1="8.75" x2="20" y2="31.25" gradientUnits="userSpaceOnUse">
<stop stop-color="white"/>
<stop offset="1" stop-color="white" stop-opacity="0"/>
</linearGradient>
<clipPath id="clip0_809_70">
<rect width="40" height="40" fill="white"/>
</clipPath>
<clipPath id="clip1_809_70">
<rect width="40" height="40" fill="white"/>
</clipPath>
</defs>
</svg>
