<svg width="20" height="27" viewBox="0 0 20 27" fill="none" xmlns="http://www.w3.org/2000/svg">
<path d="M7.09375 14.625L8.1875 11.0625L5.3125 8.75H8.875L10 5.25L11.125 8.75H14.6875L11.7812 11.0625L12.875 14.625L10 12.4062L7.09375 14.625ZM2.5 26.25V16.5938C1.70833 15.7188 1.09375 14.7188 0.65625 13.5938C0.21875 12.4688 0 11.2708 0 10C0 7.20833 0.96875 4.84375 2.90625 2.90625C4.84375 0.96875 7.20833 0 10 0C12.7917 0 15.1562 0.96875 17.0938 2.90625C19.0312 4.84375 20 7.20833 20 10C20 11.2708 19.7812 12.4688 19.3438 13.5938C18.9062 14.7188 18.2917 15.7188 17.5 16.5938V26.25L10 23.75L2.5 26.25ZM10 17.5C12.0833 17.5 13.8542 16.7708 15.3125 15.3125C16.7708 13.8542 17.5 12.0833 17.5 10C17.5 7.91667 16.7708 6.14583 15.3125 4.6875C13.8542 3.22917 12.0833 2.5 10 2.5C7.91667 2.5 6.14583 3.22917 4.6875 4.6875C3.22917 6.14583 2.5 7.91667 2.5 10C2.5 12.0833 3.22917 13.8542 4.6875 15.3125C6.14583 16.7708 7.91667 17.5 10 17.5Z" fill="#5F1712"/>
</svg>
