<svg width="150" height="156" viewBox="0 0 150 156" fill="none" xmlns="http://www.w3.org/2000/svg">
<g opacity="0.05">
<path d="M112 58.6667L105.333 44L90.6667 37.3333L105.333 30.6667L112 16L118.667 30.6667L133.333 37.3333L118.667 44L112 58.6667ZM112 133.333L105.333 118.667L90.6667 112L105.333 105.333L112 90.6667L118.667 105.333L133.333 112L118.667 118.667L112 133.333ZM58.6667 117.333L45.3333 88L16 74.6667L45.3333 61.3333L58.6667 32L72 61.3333L101.333 74.6667L72 88L58.6667 117.333ZM58.6667 91.4667L64 80L75.4667 74.6667L64 69.3333L58.6667 57.8667L53.3333 69.3333L41.8667 74.6667L53.3333 80L58.6667 91.4667Z" fill="#1A1C1A"/>
</g>
</svg>
