<svg width="24" height="27" viewBox="0 0 24 27" fill="none" xmlns="http://www.w3.org/2000/svg">
<path d="M12.0006 27C11.875 27 11.7555 26.9469 11.6742 26.855L0.101141 13.7641C-0.0337136 13.6119 -0.0337136 13.3882 0.101141 13.2359L11.6742 0.145041C11.7555 0.0531562 11.875 0 12.0006 0C12.1263 0 12.2457 0.053114 12.3271 0.145041L23.8989 13.2359C24.0337 13.3882 24.0337 13.6119 23.8989 13.7641L12.3271 26.855C12.2457 26.9469 12.1263 27 12.0006 27ZM0.987416 13.5L12.0006 25.9577L23.0126 13.5L12.0006 1.04233L0.987416 13.5Z" fill="#6E1F1F"/>
<path d="M19.3825 13.6799C19.3825 13.7836 19.3384 13.8834 19.2622 13.9525L17.2927 15.818C17.2084 15.8986 17.0921 15.937 16.9758 15.9293C16.8595 15.9178 16.7512 15.8602 16.683 15.7681L15.7083 14.4515L14.9141 14.4553C15.0023 14.7317 15.1828 14.9121 15.4155 15.1462C15.7524 15.4879 16.1776 15.9101 16.2779 16.7431C16.3541 17.3496 16.1896 17.9062 15.8166 18.3092C15.4315 18.7199 14.866 18.9388 14.1841 18.9388L14.0798 18.9349C13.8711 18.9311 13.6706 18.8389 13.5302 18.6855C13.3938 18.5319 13.3256 18.3285 13.3497 18.1288L13.3979 17.7105C13.4259 17.461 13.5864 17.2384 13.815 17.1309C14.0156 17.0387 14.0557 16.7047 14.0477 16.4054H13.3537C13.3256 17.031 13.0448 17.4533 12.5274 17.6452V18.2555L14.1559 19.6912C14.3083 19.8256 14.3284 20.0482 14.204 20.2056L12.3188 22.5624C12.2425 22.6584 12.1222 22.716 11.9979 22.716C11.8735 22.716 11.7572 22.6584 11.681 22.5624L9.79571 20.2056C9.67135 20.0482 9.69141 19.8255 9.84385 19.6912L11.4684 18.2594V17.6452C10.955 17.4533 10.6741 17.031 10.642 16.4054H9.94811C9.94009 16.7047 9.9802 17.0387 10.1848 17.1309C10.4134 17.2384 10.5738 17.461 10.6019 17.7105L10.6501 18.1288C10.6741 18.3285 10.6059 18.5319 10.4655 18.6855C10.3292 18.839 10.1286 18.9311 9.91602 18.9349L9.81572 18.9388C9.12981 18.9388 8.56425 18.7199 8.18314 18.3092C7.8101 17.9062 7.64566 17.3496 7.72188 16.7431C7.7941 16.1481 8.10291 15.5762 8.59229 15.1348C8.84899 14.9006 9.01347 14.6741 9.07762 14.4515L8.28339 14.4553L7.31269 15.7681C7.24449 15.8602 7.14023 15.9178 7.01988 15.9293C6.90354 15.9408 6.7872 15.8986 6.703 15.818L4.73353 13.9525C4.6573 13.8834 4.61719 13.7836 4.61719 13.6799C4.61719 13.5801 4.6573 13.4803 4.73353 13.4074L6.70701 11.5418C6.78725 11.465 6.90354 11.4228 7.02389 11.4343C7.14023 11.442 7.24851 11.5034 7.31675 11.5955L8.28745 12.9122L9.08167 12.9084C8.99747 12.632 8.81293 12.4478 8.58427 12.2174C8.24332 11.8758 7.82213 11.4497 7.72188 10.6206C7.64566 10.0102 7.8101 9.45362 8.18314 9.05056C8.56421 8.63982 9.12977 8.42488 9.81572 8.42488H9.91602C10.1286 8.43256 10.3292 8.52086 10.4655 8.67438C10.6059 8.82794 10.6741 9.03132 10.6501 9.23479C10.63 9.33077 10.626 9.3922 10.622 9.45362C10.6059 9.67624 10.5779 10.0448 10.1848 10.229C9.98016 10.325 9.94009 10.6589 9.94811 10.9583H10.642C10.6701 10.3327 10.9509 9.91039 11.4684 9.71847V9.10047L9.84385 7.67251C9.69141 7.53818 9.67139 7.31163 9.79571 7.15432L11.681 4.79743C11.7572 4.70145 11.8735 4.64771 11.9979 4.64771C12.1262 4.64771 12.2425 4.70525 12.3188 4.79743L14.2041 7.15432C14.3284 7.31168 14.3084 7.53818 14.1559 7.67251L12.5274 9.10431V9.71847C13.0448 9.91039 13.3256 10.3327 13.3577 10.9583H14.0477C14.0557 10.6589 14.0156 10.325 13.815 10.229C13.4179 10.0448 13.3898 9.67624 13.3738 9.45362C13.3698 9.3922 13.3658 9.33077 13.3537 9.26555C13.3256 9.03137 13.3938 8.82794 13.5302 8.67438C13.6706 8.52081 13.8712 8.43256 14.0798 8.42488H14.1841C14.87 8.42488 15.4315 8.63982 15.8166 9.05056C16.1896 9.45362 16.3541 10.0102 16.2779 10.6206C16.1776 11.4535 15.7524 11.8757 15.4155 12.2174C15.1828 12.4515 15.0023 12.632 14.9221 12.9122C15.0705 12.8892 15.2951 12.9007 15.4436 12.9084C15.5037 12.9084 15.5599 12.9122 15.612 12.9122C15.6962 12.9122 15.7203 12.9045 15.7243 12.9045L16.683 11.5956C16.7511 11.5034 16.8595 11.442 16.9758 11.4343C17.0921 11.4228 17.2084 11.4651 17.2926 11.5418L19.2621 13.4074C19.3384 13.4803 19.3825 13.5801 19.3825 13.6799Z" fill="#6E1F1F"/>
</svg>
