<svg width="34" height="36" viewBox="0 0 34 36" fill="none" xmlns="http://www.w3.org/2000/svg">
<path d="M10 28C9.45 28 8.97917 27.8042 8.5875 27.4125C8.19583 27.0208 8 26.55 8 26V12C8 11.45 8.19583 10.9792 8.5875 10.5875C8.97917 10.1958 9.45 10 10 10H11V8H13V10H21V8H23V10H24C24.55 10 25.0208 10.1958 25.4125 10.5875C25.8042 10.9792 26 11.45 26 12V26C26 26.55 25.8042 27.0208 25.4125 27.4125C25.0208 27.8042 24.55 28 24 28H10ZM10 26H24V16H10V26ZM10 14H24V12H10V14ZM10 14V12V14ZM17 20C16.7167 20 16.4792 19.9042 16.2875 19.7125C16.0958 19.5208 16 19.2833 16 19C16 18.7167 16.0958 18.4792 16.2875 18.2875C16.4792 18.0958 16.7167 18 17 18C17.2833 18 17.5208 18.0958 17.7125 18.2875C17.9042 18.4792 18 18.7167 18 19C18 19.2833 17.9042 19.5208 17.7125 19.7125C17.5208 19.9042 17.2833 20 17 20ZM13 20C12.7167 20 12.4792 19.9042 12.2875 19.7125C12.0958 19.5208 12 19.2833 12 19C12 18.7167 12.0958 18.4792 12.2875 18.2875C12.4792 18.0958 12.7167 18 13 18C13.2833 18 13.5208 18.0958 13.7125 18.2875C13.9042 18.4792 14 18.7167 14 19C14 19.2833 13.9042 19.5208 13.7125 19.7125C13.5208 19.9042 13.2833 20 13 20ZM21 20C20.7167 20 20.4792 19.9042 20.2875 19.7125C20.0958 19.5208 20 19.2833 20 19C20 18.7167 20.0958 18.4792 20.2875 18.2875C20.4792 18.0958 20.7167 18 21 18C21.2833 18 21.5208 18.0958 21.7125 18.2875C21.9042 18.4792 22 18.7167 22 19C22 19.2833 21.9042 19.5208 21.7125 19.7125C21.5208 19.9042 21.2833 20 21 20ZM17 24C16.7167 24 16.4792 23.9042 16.2875 23.7125C16.0958 23.5208 16 23.2833 16 23C16 22.7167 16.0958 22.4792 16.2875 22.2875C16.4792 22.0958 16.7167 22 17 22C17.2833 22 17.5208 22.0958 17.7125 22.2875C17.9042 22.4792 18 22.7167 18 23C18 23.2833 17.9042 23.5208 17.7125 23.7125C17.5208 23.9042 17.2833 24 17 24ZM13 24C12.7167 24 12.4792 23.9042 12.2875 23.7125C12.0958 23.5208 12 23.2833 12 23C12 22.7167 12.0958 22.4792 12.2875 22.2875C12.4792 22.0958 12.7167 22 13 22C13.2833 22 13.5208 22.0958 13.7125 22.2875C13.9042 22.4792 14 22.7167 14 23C14 23.2833 13.9042 23.5208 13.7125 23.7125C13.5208 23.9042 13.2833 24 13 24ZM21 24C20.7167 24 20.4792 23.9042 20.2875 23.7125C20.0958 23.5208 20 23.2833 20 23C20 22.7167 20.0958 22.4792 20.2875 22.2875C20.4792 22.0958 20.7167 22 21 22C21.2833 22 21.5208 22.0958 21.7125 22.2875C21.9042 22.4792 22 22.7167 22 23C22 23.2833 21.9042 23.5208 21.7125 23.7125C21.5208 23.9042 21.2833 24 21 24Z" fill="#554240"/>
</svg>
