<svg width="32" height="32" viewBox="0 0 32 32" fill="none" xmlns="http://www.w3.org/2000/svg">
<path d="M13.3332 29.3334H18.6665M10.6665 20.0001H21.3332M6.66651 12.0001C6.66651 9.52473 7.64984 7.15076 9.40018 5.40042C11.1505 3.65008 13.5245 2.66675 15.9998 2.66675C18.4752 2.66675 20.8492 3.65008 22.5995 5.40042C24.3498 7.15076 25.3332 9.52473 25.3332 12.0001C25.3343 13.5029 24.9709 14.9835 24.2742 16.3151C23.5776 17.6467 22.5684 18.7894 21.3332 19.6454L20.6105 23.0667C20.5148 23.6974 20.1963 24.2728 19.7127 24.6887C19.229 25.1046 18.6123 25.3333 17.9745 25.3334H14.0252C13.3873 25.3333 12.7707 25.1046 12.287 24.6887C11.8034 24.2728 11.4849 23.6974 11.3892 23.0667L10.6665 19.6601C9.43089 18.8011 8.42165 17.6556 7.72507 16.3217C7.02849 14.9877 6.66529 13.505 6.66651 12.0001Z" stroke="white" stroke-width="2" stroke-linecap="round" stroke-linejoin="round"/>
</svg>
