<svg width="16" height="8" viewBox="0 0 16 8" fill="none" xmlns="http://www.w3.org/2000/svg">
<path d="M0 8V6.95C0 6.47222 0.244444 6.08333 0.733333 5.78333C1.22222 5.48333 1.86667 5.33333 2.66667 5.33333C2.81111 5.33333 2.95 5.33611 3.08333 5.34167C3.21667 5.34722 3.34444 5.36111 3.46667 5.38333C3.31111 5.61667 3.19444 5.86111 3.11667 6.11667C3.03889 6.37222 3 6.63889 3 6.91667V8H0ZM4 8V6.91667C4 6.56111 4.09722 6.23611 4.29167 5.94167C4.48611 5.64722 4.76111 5.38889 5.11667 5.16667C5.47222 4.94444 5.89722 4.77778 6.39167 4.66667C6.88611 4.55556 7.42222 4.5 8 4.5C8.58889 4.5 9.13056 4.55556 9.625 4.66667C10.1194 4.77778 10.5444 4.94444 10.9 5.16667C11.2556 5.38889 11.5278 5.64722 11.7167 5.94167C11.9056 6.23611 12 6.56111 12 6.91667V8H4ZM13 8V6.91667C13 6.62778 12.9639 6.35556 12.8917 6.1C12.8194 5.84444 12.7111 5.60556 12.5667 5.38333C12.6889 5.36111 12.8139 5.34722 12.9417 5.34167C13.0694 5.33611 13.2 5.33333 13.3333 5.33333C14.1333 5.33333 14.7778 5.48056 15.2667 5.775C15.7556 6.06944 16 6.46111 16 6.95V8H13ZM5.41667 6.66667H10.6C10.4889 6.44444 10.1806 6.25 9.675 6.08333C9.16945 5.91667 8.61111 5.83333 8 5.83333C7.38889 5.83333 6.83056 5.91667 6.325 6.08333C5.81944 6.25 5.51667 6.44444 5.41667 6.66667ZM2.66667 4.66667C2.3 4.66667 1.98611 4.53611 1.725 4.275C1.46389 4.01389 1.33333 3.7 1.33333 3.33333C1.33333 2.95556 1.46389 2.63889 1.725 2.38333C1.98611 2.12778 2.3 2 2.66667 2C3.04444 2 3.36111 2.12778 3.61667 2.38333C3.87222 2.63889 4 2.95556 4 3.33333C4 3.7 3.87222 4.01389 3.61667 4.275C3.36111 4.53611 3.04444 4.66667 2.66667 4.66667ZM13.3333 4.66667C12.9667 4.66667 12.6528 4.53611 12.3917 4.275C12.1306 4.01389 12 3.7 12 3.33333C12 2.95556 12.1306 2.63889 12.3917 2.38333C12.6528 2.12778 12.9667 2 13.3333 2C13.7111 2 14.0278 2.12778 14.2833 2.38333C14.5389 2.63889 14.6667 2.95556 14.6667 3.33333C14.6667 3.7 14.5389 4.01389 14.2833 4.275C14.0278 4.53611 13.7111 4.66667 13.3333 4.66667ZM8 4C7.44444 4 6.97222 3.80556 6.58333 3.41667C6.19444 3.02778 6 2.55556 6 2C6 1.43333 6.19444 0.958333 6.58333 0.575C6.97222 0.191667 7.44444 0 8 0C8.56667 0 9.04167 0.191667 9.425 0.575C9.80833 0.958333 10 1.43333 10 2C10 2.55556 9.80833 3.02778 9.425 3.41667C9.04167 3.80556 8.56667 4 8 4ZM8 2.66667C8.18889 2.66667 8.34722 2.60278 8.475 2.475C8.60278 2.34722 8.66667 2.18889 8.66667 2C8.66667 1.81111 8.60278 1.65278 8.475 1.525C8.34722 1.39722 8.18889 1.33333 8 1.33333C7.81111 1.33333 7.65278 1.39722 7.525 1.525C7.39722 1.65278 7.33333 1.81111 7.33333 2C7.33333 2.18889 7.39722 2.34722 7.525 2.475C7.65278 2.60278 7.81111 2.66667 8 2.66667Z" fill="#88726F"/>
</svg>
