<svg width="164" height="22" viewBox="0 0 164 22" fill="none" xmlns="http://www.w3.org/2000/svg">
<path d="M156.402 18.5607L164 10.9983L156.402 3.43594L149.476 10.3312H146.217L151.721 4.85368L150.762 3.91296L144.596 10.0509L138.43 3.91296L137.47 4.85368L142.975 10.3312H134.735V7.87263H133.384V10.3312H130.845V5.83442H129.494V10.3312H125.226L114.75 2.40849V10.3312H112.467L99.8914 0.820624L99.0708 1.88142L110.249 10.3345H106.092L92.4282 0V22L106.085 11.6655H110.242L99.064 20.1186L99.8846 21.1794L112.464 11.6655H114.747V19.5882L125.222 11.6655H129.491V16.1622H130.841V11.6655H133.381V14.124H134.732V11.6655H142.972L137.467 17.143L138.426 18.0837L144.593 11.9457L150.759 18.0837L151.718 17.143L146.217 11.6655H149.476L156.402 18.5607ZM93.7723 19.298V2.70205L104.744 10.9983L93.7723 19.298ZM116.098 5.11054L123 10.3312H116.098V5.11054ZM116.098 16.8861V11.6655H123L116.098 16.8861ZM156.402 5.3307L162.095 10.9983L156.402 16.666L150.708 10.9983L156.402 5.3307Z" fill="#F9CE65"/>
<path d="M81.9998 5.53418C78.9503 5.53418 76.4683 7.98604 76.4683 10.9983C76.4683 14.0106 78.9503 16.4625 81.9998 16.4625C85.0492 16.4625 87.5313 14.0106 87.5313 10.9983C87.5313 7.98604 85.0492 5.53418 81.9998 5.53418ZM81.9998 15.1281C79.6933 15.1281 77.8191 13.2767 77.8191 10.9983C77.8191 8.71993 79.6933 6.86852 81.9998 6.86852C84.3063 6.86852 86.1805 8.71993 86.1805 10.9983C86.1805 13.2767 84.3063 15.1281 81.9998 15.1281Z" fill="#F9CE65"/>
<path d="M53.7583 10.3312L64.9361 1.87809L64.1155 0.817285L51.5362 10.3312H49.2534V2.40849L38.7779 10.3312H34.5094V5.83442H33.1586V10.3312H30.6191V7.87263H29.2683V10.3312H21.0285L26.533 4.85368L25.5739 3.91296L19.4075 10.0509L13.2412 3.91296L12.2821 4.85368L17.7832 10.3312H14.5244L7.59822 3.43594L0 10.9983L7.59822 18.5607L14.5244 11.6655H17.7832L12.2787 17.143L13.2378 18.0837L19.4042 11.9457L25.5705 18.0837L26.5296 17.143L21.0285 11.6655H29.2683V14.124H30.6191V11.6655H33.1586V16.1622H34.5094V11.6655H38.7779L49.2534 19.5882V11.6655H51.5362L64.1121 21.176L64.9327 20.1152L53.7583 11.6655H57.9153L71.5786 22V0L57.9153 10.3312H53.7583ZM7.59822 16.666L1.90462 10.9983L7.59822 5.3307L13.2918 10.9983L7.59822 16.666ZM47.9026 5.11054V10.3312H41L47.9026 5.11054ZM47.9026 16.8861L41 11.6655H47.9026V16.8861ZM70.2278 2.69871V19.2946L59.256 10.9983L70.2278 2.69871Z" fill="#F9CE65"/>
<path d="M156.402 4.3833L149.756 10.9983L156.402 17.6133L163.048 10.9983L156.402 4.3833ZM156.25 13.647C154.771 13.5636 153.636 12.3126 153.72 10.8482C153.805 9.38709 155.071 8.26624 156.554 8.34964C158.033 8.43303 159.168 9.68399 159.083 11.1484C158.999 12.6095 157.732 13.727 156.25 13.647Z" fill="#F9CE65"/>
<path d="M7.59855 4.3833L0.952637 10.9983L7.59855 17.6133L14.2445 10.9983L7.59855 4.3833ZM7.44658 13.647C5.96746 13.5636 4.83279 12.3126 4.91722 10.8482C5.00164 9.38709 6.26801 8.26624 7.75051 8.34964C9.22963 8.43303 10.3643 9.68399 10.2799 11.1484C10.1954 12.6095 8.92908 13.727 7.44658 13.647Z" fill="#F9CE65"/>
<path d="M82.0006 13.6502C83.4833 13.6502 84.6853 12.4629 84.6853 10.9982C84.6853 9.53354 83.4833 8.34619 82.0006 8.34619C80.5179 8.34619 79.3159 9.53354 79.3159 10.9982C79.3159 12.4629 80.5179 13.6502 82.0006 13.6502Z" fill="#F9CE65"/>
</svg>
